<svg xmlns="http://www.w3.org/2000/svg" viewBox="0 0 336.2 16.4"><defs><style>.cls-1{fill:#070102;}</style></defs><title>fixfinitologo</title><g id="Lag_2" data-name="Lag 2"><g id="Layer_1" data-name="Layer 1"><path class="cls-1" d="M0,.3H11.2V3.2H3.4V6.6h7.7V9.5H3.4v6.6H0Z"/><path class="cls-1" d="M31.7.3h3.4V16.1H31.7Z"/><path class="cls-1" d="M62.7,10.3l-4,5.8h-4L60.4,8,55,.3h4l3.6,5.4L66.2.3h4.1L64.9,8l5.7,8.1h-4Z"/><path class="cls-1" d="M128.2,16.1h-3.8l-1.2-1.2a7,7,0,0,1-4.3,1.5c-2.9,0-5.2-1.5-5.2-4.6,0-2.4,1.6-3.7,3.4-4.6a7.73,7.73,0,0,1-1-3.4c0-2.1,1.9-3.8,4.5-3.8,2.3,0,4.2,1.2,4.2,3.3,0,2.4-1.9,3.4-3.9,4.3.5.6.9,1.2,1.4,1.7s.9,1.1,1.4,1.6a8.53,8.53,0,0,0,1.4-3.1l2.4,1.1a20.8,20.8,0,0,1-2.2,3.8A22.75,22.75,0,0,0,128.2,16.1Zm-6.6-2.9c-.7-.8-1.4-1.5-1.8-2s-1.1-1.4-1.6-2.1a2.91,2.91,0,0,0-1.4,2.4,2.39,2.39,0,0,0,2.4,2.5A4.07,4.07,0,0,0,121.6,13.2ZM119.7,6c1.3-.6,2.4-1.3,2.4-2.5a1.29,1.29,0,0,0-1.4-1.3A1.63,1.63,0,0,0,119,3.9,4.74,4.74,0,0,0,119.7,6Z"/><path class="cls-1" d="M172.4.3h11.2V3.2h-7.8V6.6h7.7V9.5h-7.7v6.6h-3.4V.3Z"/><path class="cls-1" d="M204.2.3h3.4V16.1h-3.4Z"/><path class="cls-1" d="M232.2,5.5V16.1h-3.4V.3h3.5l7.3,10.3V.3H243V16.1h-3.3Z"/><path class="cls-1" d="M264.3.3h3.4V16.1h-3.4Z"/><path class="cls-1" d="M292.7,3.2h-4.6V.2h12.6v3h-4.6V16.1h-3.4Z"/><path class="cls-1" d="M327.9,0a8,8,0,0,1,8.3,8.2,8.3,8.3,0,0,1-16.6,0A8.07,8.07,0,0,1,327.9,0Zm0,3c-2.9,0-4.8,2.2-4.8,5.2s1.9,5.2,4.8,5.2,4.8-2.3,4.8-5.2S330.9,3,327.9,3Z"/></g></g></svg>