<svg xmlns="http://www.w3.org/2000/svg" viewBox="0 0 39.13 37.88"><defs><style>.cls-1{fill:#010002;stroke:#1d1d1b;stroke-miterlimit:10;}</style></defs><title>shoppingbasket</title><g id="Lag_2" data-name="Lag 2"><g id="Capa_1" data-name="Capa 1"><path class="cls-1" d="M36,8.89H27.81V1.12A.62.62,0,0,0,27.19.5H12a.63.63,0,0,0-.63.62V8.89H3.17a.62.62,0,0,0-.62.58L.5,36.71a.64.64,0,0,0,.17.47.63.63,0,0,0,.45.2H38a.62.62,0,0,0,.62-.67L36.58,9.47A.62.62,0,0,0,36,8.89Zm-8.77,4a.57.57,0,0,1,.57.57.58.58,0,1,1-.57-.57ZM12.57,1.75h14V8.89h-14ZM12,12.85a.57.57,0,0,1,.57.57.58.58,0,1,1-.57-.57ZM1.8,36.13l2-26h7.57v1.58a1.81,1.81,0,0,0-1.2,1.7,1.83,1.83,0,0,0,3.65,0,1.81,1.81,0,0,0-1.2-1.7V10.14h14v1.58a1.81,1.81,0,0,0-1.2,1.7,1.83,1.83,0,0,0,3.65,0,1.81,1.81,0,0,0-1.2-1.7V10.14h7.57l1.95,26Z"/></g></g></svg>